<?xml version="1.0" encoding="UTF-8" standalone="no"?>
<!DOCTYPE svg PUBLIC "-//W3C//DTD SVG 1.1//EN"
 "http://www.w3.org/Graphics/SVG/1.1/DTD/svg11.dtd">
<!-- Generated by graphviz version 12.1.0 (20240811.2233)
 -->
<!-- Title: tiebreaker_cli.cmd_rank Pages: 1 -->
<svg width="538pt" height="90pt"
 viewBox="0.00 0.00 537.75 90.00" xmlns="http://www.w3.org/2000/svg" xmlns:xlink="http://www.w3.org/1999/xlink">
<g id="graph0" class="graph" transform="scale(1 1) rotate(0) translate(4 86)">
<title>tiebreaker_cli.cmd_rank</title>
<!-- Node1 -->
<g id="Node000001" class="node">
<title>Node1</title>
<g id="a_Node000001"><a xlink:title=" ">
<polygon fill="#999999" stroke="#666666" points="119.5,-51 0,-51 0,-31 119.5,-31 119.5,-51"/>
<text text-anchor="middle" x="59.75" y="-37.5" font-family="Helvetica,sans-Serif" font-size="10.00">tiebreaker_cli.cmd_rank</text>
</a>
</g>
</g>
<!-- Node2 -->
<g id="Node000002" class="node">
<title>Node2</title>
<g id="a_Node000002"><a xlink:href="namespacetiebreaker__cli.html#a0e61573514b7b3874c720ee48d067434" target="_top" xlink:title=" ">
<polygon fill="white" stroke="#666666" points="257.38,-82 161.88,-82 161.88,-50 257.38,-50 257.38,-82"/>
<text text-anchor="start" x="169.88" y="-68.5" font-family="Helvetica,sans-Serif" font-size="10.00">tiebreaker_cli.date</text>
<text text-anchor="middle" x="209.62" y="-56.5" font-family="Helvetica,sans-Serif" font-size="10.00">_parse_or_none</text>
</a>
</g>
</g>
<!-- Node1&#45;&gt;Node2 -->
<g id="edge1_Node000001_Node000002" class="edge">
<title>Node1&#45;&gt;Node2</title>
<g id="a_edge1_Node000001_Node000002"><a xlink:title=" ">
<path fill="none" stroke="#63b8ff" d="M119.62,-50.95C129.8,-52.67 140.38,-54.46 150.54,-56.18"/>
<polygon fill="#63b8ff" stroke="#63b8ff" points="149.86,-59.61 160.3,-57.83 151.02,-52.71 149.86,-59.61"/>
</a>
</g>
</g>
<!-- Node3 -->
<g id="Node000003" class="node">
<title>Node3</title>
<g id="a_Node000003"><a xlink:href="namespacetiebreaker__cli.html#a5772e6f252862a69fe791cace9fcb6e0" target="_top" xlink:title=" ">
<polygon fill="white" stroke="#666666" points="263.75,-32 155.5,-32 155.5,0 263.75,0 263.75,-32"/>
<text text-anchor="start" x="163.5" y="-18.5" font-family="Helvetica,sans-Serif" font-size="10.00">tiebreaker_cli.resolve</text>
<text text-anchor="middle" x="209.62" y="-6.5" font-family="Helvetica,sans-Serif" font-size="10.00">_player_id</text>
</a>
</g>
</g>
<!-- Node1&#45;&gt;Node3 -->
<g id="edge2_Node000001_Node000003" class="edge">
<title>Node1&#45;&gt;Node3</title>
<g id="a_edge2_Node000001_Node000003"><a xlink:title=" ">
<path fill="none" stroke="#63b8ff" d="M119.62,-31.05C127.61,-29.7 135.85,-28.3 143.94,-26.94"/>
<polygon fill="#63b8ff" stroke="#63b8ff" points="144.46,-30.4 153.74,-25.28 143.29,-23.5 144.46,-30.4"/>
</a>
</g>
</g>
<!-- Node4 -->
<g id="Node000004" class="node">
<title>Node4</title>
<g id="a_Node000004"><a xlink:href="namespacetiebreaker__cli.html#a27f9cace7298ef8ce8defef27dc1a0a4" target="_top" xlink:title=" ">
<polygon fill="white" stroke="#666666" points="395.25,-32 299.75,-32 299.75,0 395.25,0 395.25,-32"/>
<text text-anchor="start" x="307.75" y="-18.5" font-family="Helvetica,sans-Serif" font-size="10.00">tiebreaker_cli.best</text>
<text text-anchor="middle" x="347.5" y="-6.5" font-family="Helvetica,sans-Serif" font-size="10.00">_name_match</text>
</a>
</g>
</g>
<!-- Node3&#45;&gt;Node4 -->
<g id="edge3_Node000003_Node000004" class="edge">
<title>Node3&#45;&gt;Node4</title>
<g id="a_edge3_Node000003_Node000004"><a xlink:title=" ">
<path fill="none" stroke="#63b8ff" d="M263.94,-16C271.92,-16 280.19,-16 288.27,-16"/>
<polygon fill="#63b8ff" stroke="#63b8ff" points="288,-19.5 298,-16 288,-12.5 288,-19.5"/>
</a>
</g>
</g>
<!-- Node5 -->
<g id="Node000005" class="node">
<title>Node5</title>
<g id="a_Node000005"><a xlink:href="namespacetiebreaker__cli.html#a5c42fcc9f2cef62c42bb4beface1481c" target="_top" xlink:title=" ">
<polygon fill="white" stroke="#666666" points="529.75,-26 431.25,-26 431.25,-6 529.75,-6 529.75,-26"/>
<text text-anchor="middle" x="480.5" y="-12.5" font-family="Helvetica,sans-Serif" font-size="10.00">tiebreaker_cli.norm</text>
</a>
</g>
</g>
<!-- Node4&#45;&gt;Node5 -->
<g id="edge4_Node000004_Node000005" class="edge">
<title>Node4&#45;&gt;Node5</title>
<g id="a_edge4_Node000004_Node000005"><a xlink:title=" ">
<path fill="none" stroke="#63b8ff" d="M395.42,-16C403.31,-16 411.58,-16 419.74,-16"/>
<polygon fill="#63b8ff" stroke="#63b8ff" points="419.62,-19.5 429.62,-16 419.62,-12.5 419.62,-19.5"/>
</a>
</g>
</g>
</g>
</svg>
