<?xml version="1.0" encoding="UTF-8" standalone="no"?>
<!DOCTYPE svg PUBLIC "-//W3C//DTD SVG 1.1//EN"
 "http://www.w3.org/Graphics/SVG/1.1/DTD/svg11.dtd">
<!-- Generated by graphviz version 12.1.0 (20240811.2233)
 -->
<!-- Title: tiebreaker_cli.date_parse_or_none Pages: 1 -->
<svg width="259pt" height="78pt"
 viewBox="0.00 0.00 259.00 78.00" xmlns="http://www.w3.org/2000/svg" xmlns:xlink="http://www.w3.org/1999/xlink">
<g id="graph0" class="graph" transform="scale(1 1) rotate(0) translate(4 74)">
<title>tiebreaker_cli.date_parse_or_none</title>
<!-- Node1 -->
<g id="Node000001" class="node">
<title>Node1</title>
<g id="a_Node000001"><a xlink:title=" ">
<polygon fill="#999999" stroke="#666666" points="251,-48 155.5,-48 155.5,-16 251,-16 251,-48"/>
<text text-anchor="start" x="163.5" y="-34.5" font-family="Helvetica,sans-Serif" font-size="10.00">tiebreaker_cli.date</text>
<text text-anchor="middle" x="203.25" y="-22.5" font-family="Helvetica,sans-Serif" font-size="10.00">_parse_or_none</text>
</a>
</g>
</g>
<!-- Node2 -->
<g id="Node000002" class="node">
<title>Node2</title>
<g id="a_Node000002"><a xlink:href="namespacetiebreaker__cli.html#ae40d193e555fe7b52c47375634964deb" target="_top" xlink:title=" ">
<polygon fill="white" stroke="#666666" points="107.5,-70 12,-70 12,-38 107.5,-38 107.5,-70"/>
<text text-anchor="start" x="20" y="-56.5" font-family="Helvetica,sans-Serif" font-size="10.00">tiebreaker_cli.cmd</text>
<text text-anchor="middle" x="59.75" y="-44.5" font-family="Helvetica,sans-Serif" font-size="10.00">_match</text>
</a>
</g>
</g>
<!-- Node1&#45;&gt;Node2 -->
<g id="edge1_Node000001_Node000002" class="edge">
<title>Node1&#45;&gt;Node2</title>
<g id="a_edge1_Node000001_Node000002"><a xlink:title=" ">
<path fill="none" stroke="#63b8ff" d="M143.79,-41.09C131.75,-42.96 119.23,-44.91 107.66,-46.71"/>
<polygon fill="#63b8ff" stroke="#63b8ff" points="144.29,-44.55 153.64,-39.56 143.22,-37.64 144.29,-44.55"/>
</a>
</g>
</g>
<!-- Node3 -->
<g id="Node000003" class="node">
<title>Node3</title>
<g id="a_Node000003"><a xlink:href="namespacetiebreaker__cli.html#a9ff43a82360fdfc964a0e095ee31631d" target="_top" xlink:title=" ">
<polygon fill="white" stroke="#666666" points="119.5,-20 0,-20 0,0 119.5,0 119.5,-20"/>
<text text-anchor="middle" x="59.75" y="-6.5" font-family="Helvetica,sans-Serif" font-size="10.00">tiebreaker_cli.cmd_rank</text>
</a>
</g>
</g>
<!-- Node1&#45;&gt;Node3 -->
<g id="edge2_Node000001_Node000003" class="edge">
<title>Node1&#45;&gt;Node3</title>
<g id="a_edge2_Node000001_Node000003"><a xlink:title=" ">
<path fill="none" stroke="#63b8ff" d="M143.81,-22.91C135.95,-21.69 127.87,-20.44 120,-19.21"/>
<polygon fill="#63b8ff" stroke="#63b8ff" points="143.22,-26.36 153.64,-24.44 144.29,-19.45 143.22,-26.36"/>
</a>
</g>
</g>
</g>
</svg>
