<?xml version="1.0" encoding="UTF-8" standalone="no"?>
<!DOCTYPE svg PUBLIC "-//W3C//DTD SVG 1.1//EN"
 "http://www.w3.org/Graphics/SVG/1.1/DTD/svg11.dtd">
<!-- Generated by graphviz version 12.1.0 (20240811.2233)
 -->
<!-- Title: tiebreaker_cli.resolve_player_id Pages: 1 -->
<svg width="382pt" height="40pt"
 viewBox="0.00 0.00 382.25 40.00" xmlns="http://www.w3.org/2000/svg" xmlns:xlink="http://www.w3.org/1999/xlink">
<g id="graph0" class="graph" transform="scale(1 1) rotate(0) translate(4 36)">
<title>tiebreaker_cli.resolve_player_id</title>
<!-- Node1 -->
<g id="Node000001" class="node">
<title>Node1</title>
<g id="a_Node000001"><a xlink:title=" ">
<polygon fill="#999999" stroke="#666666" points="108.25,-32 0,-32 0,0 108.25,0 108.25,-32"/>
<text text-anchor="start" x="8" y="-18.5" font-family="Helvetica,sans-Serif" font-size="10.00">tiebreaker_cli.resolve</text>
<text text-anchor="middle" x="54.12" y="-6.5" font-family="Helvetica,sans-Serif" font-size="10.00">_player_id</text>
</a>
</g>
</g>
<!-- Node2 -->
<g id="Node000002" class="node">
<title>Node2</title>
<g id="a_Node000002"><a xlink:href="namespacetiebreaker__cli.html#a27f9cace7298ef8ce8defef27dc1a0a4" target="_top" xlink:title=" ">
<polygon fill="white" stroke="#666666" points="239.75,-32 144.25,-32 144.25,0 239.75,0 239.75,-32"/>
<text text-anchor="start" x="152.25" y="-18.5" font-family="Helvetica,sans-Serif" font-size="10.00">tiebreaker_cli.best</text>
<text text-anchor="middle" x="192" y="-6.5" font-family="Helvetica,sans-Serif" font-size="10.00">_name_match</text>
</a>
</g>
</g>
<!-- Node1&#45;&gt;Node2 -->
<g id="edge1_Node000001_Node000002" class="edge">
<title>Node1&#45;&gt;Node2</title>
<g id="a_edge1_Node000001_Node000002"><a xlink:title=" ">
<path fill="none" stroke="#63b8ff" d="M108.44,-16C116.42,-16 124.69,-16 132.77,-16"/>
<polygon fill="#63b8ff" stroke="#63b8ff" points="132.5,-19.5 142.5,-16 132.5,-12.5 132.5,-19.5"/>
</a>
</g>
</g>
<!-- Node3 -->
<g id="Node000003" class="node">
<title>Node3</title>
<g id="a_Node000003"><a xlink:href="namespacetiebreaker__cli.html#a5c42fcc9f2cef62c42bb4beface1481c" target="_top" xlink:title=" ">
<polygon fill="white" stroke="#666666" points="374.25,-26 275.75,-26 275.75,-6 374.25,-6 374.25,-26"/>
<text text-anchor="middle" x="325" y="-12.5" font-family="Helvetica,sans-Serif" font-size="10.00">tiebreaker_cli.norm</text>
</a>
</g>
</g>
<!-- Node2&#45;&gt;Node3 -->
<g id="edge2_Node000002_Node000003" class="edge">
<title>Node2&#45;&gt;Node3</title>
<g id="a_edge2_Node000002_Node000003"><a xlink:title=" ">
<path fill="none" stroke="#63b8ff" d="M239.92,-16C247.81,-16 256.08,-16 264.24,-16"/>
<polygon fill="#63b8ff" stroke="#63b8ff" points="264.12,-19.5 274.12,-16 264.12,-12.5 264.12,-19.5"/>
</a>
</g>
</g>
</g>
</svg>
