<?xml version="1.0" encoding="UTF-8" standalone="no"?>
<!DOCTYPE svg PUBLIC "-//W3C//DTD SVG 1.1//EN"
 "http://www.w3.org/Graphics/SVG/1.1/DTD/svg11.dtd">
<!-- Generated by graphviz version 12.1.0 (20240811.2233)
 -->
<!-- Title: tiebreaker_cli.norm Pages: 1 -->
<svg width="538pt" height="78pt"
 viewBox="0.00 0.00 537.75 78.00" xmlns="http://www.w3.org/2000/svg" xmlns:xlink="http://www.w3.org/1999/xlink">
<g id="graph0" class="graph" transform="scale(1 1) rotate(0) translate(4 74)">
<title>tiebreaker_cli.norm</title>
<!-- Node1 -->
<g id="Node000001" class="node">
<title>Node1</title>
<g id="a_Node000001"><a xlink:title=" ">
<polygon fill="#999999" stroke="#666666" points="529.75,-42 431.25,-42 431.25,-22 529.75,-22 529.75,-42"/>
<text text-anchor="middle" x="480.5" y="-28.5" font-family="Helvetica,sans-Serif" font-size="10.00">tiebreaker_cli.norm</text>
</a>
</g>
</g>
<!-- Node2 -->
<g id="Node000002" class="node">
<title>Node2</title>
<g id="a_Node000002"><a xlink:href="namespacetiebreaker__cli.html#a27f9cace7298ef8ce8defef27dc1a0a4" target="_top" xlink:title=" ">
<polygon fill="white" stroke="#666666" points="395.25,-48 299.75,-48 299.75,-16 395.25,-16 395.25,-48"/>
<text text-anchor="start" x="307.75" y="-34.5" font-family="Helvetica,sans-Serif" font-size="10.00">tiebreaker_cli.best</text>
<text text-anchor="middle" x="347.5" y="-22.5" font-family="Helvetica,sans-Serif" font-size="10.00">_name_match</text>
</a>
</g>
</g>
<!-- Node1&#45;&gt;Node2 -->
<g id="edge1_Node000001_Node000002" class="edge">
<title>Node1&#45;&gt;Node2</title>
<g id="a_edge1_Node000001_Node000002"><a xlink:title=" ">
<path fill="none" stroke="#63b8ff" d="M419.7,-32C411.55,-32 403.28,-32 395.4,-32"/>
<polygon fill="#63b8ff" stroke="#63b8ff" points="419.58,-35.5 429.58,-32 419.58,-28.5 419.58,-35.5"/>
</a>
</g>
</g>
<!-- Node3 -->
<g id="Node000003" class="node">
<title>Node3</title>
<g id="a_Node000003"><a xlink:href="namespacetiebreaker__cli.html#a5772e6f252862a69fe791cace9fcb6e0" target="_top" xlink:title=" ">
<polygon fill="white" stroke="#666666" points="263.75,-48 155.5,-48 155.5,-16 263.75,-16 263.75,-48"/>
<text text-anchor="start" x="163.5" y="-34.5" font-family="Helvetica,sans-Serif" font-size="10.00">tiebreaker_cli.resolve</text>
<text text-anchor="middle" x="209.62" y="-22.5" font-family="Helvetica,sans-Serif" font-size="10.00">_player_id</text>
</a>
</g>
</g>
<!-- Node2&#45;&gt;Node3 -->
<g id="edge2_Node000002_Node000003" class="edge">
<title>Node2&#45;&gt;Node3</title>
<g id="a_edge2_Node000002_Node000003"><a xlink:title=" ">
<path fill="none" stroke="#63b8ff" d="M287.97,-32C280.07,-32 272,-32 264.2,-32"/>
<polygon fill="#63b8ff" stroke="#63b8ff" points="287.85,-35.5 297.85,-32 287.85,-28.5 287.85,-35.5"/>
</a>
</g>
</g>
<!-- Node4 -->
<g id="Node000004" class="node">
<title>Node4</title>
<g id="a_Node000004"><a xlink:href="namespacetiebreaker__cli.html#ae40d193e555fe7b52c47375634964deb" target="_top" xlink:title=" ">
<polygon fill="white" stroke="#666666" points="107.5,-70 12,-70 12,-38 107.5,-38 107.5,-70"/>
<text text-anchor="start" x="20" y="-56.5" font-family="Helvetica,sans-Serif" font-size="10.00">tiebreaker_cli.cmd</text>
<text text-anchor="middle" x="59.75" y="-44.5" font-family="Helvetica,sans-Serif" font-size="10.00">_match</text>
</a>
</g>
</g>
<!-- Node3&#45;&gt;Node4 -->
<g id="edge3_Node000003_Node000004" class="edge">
<title>Node3&#45;&gt;Node4</title>
<g id="a_edge3_Node000003_Node000004"><a xlink:title=" ">
<path fill="none" stroke="#63b8ff" d="M144.13,-41.6C131.87,-43.42 119.27,-45.29 107.69,-47.02"/>
<polygon fill="#63b8ff" stroke="#63b8ff" points="144.37,-45.1 153.74,-40.17 143.34,-38.17 144.37,-45.1"/>
</a>
</g>
</g>
<!-- Node5 -->
<g id="Node000005" class="node">
<title>Node5</title>
<g id="a_Node000005"><a xlink:href="namespacetiebreaker__cli.html#a9ff43a82360fdfc964a0e095ee31631d" target="_top" xlink:title=" ">
<polygon fill="white" stroke="#666666" points="119.5,-20 0,-20 0,0 119.5,0 119.5,-20"/>
<text text-anchor="middle" x="59.75" y="-6.5" font-family="Helvetica,sans-Serif" font-size="10.00">tiebreaker_cli.cmd_rank</text>
</a>
</g>
</g>
<!-- Node3&#45;&gt;Node5 -->
<g id="edge4_Node000003_Node000005" class="edge">
<title>Node3&#45;&gt;Node5</title>
<g id="a_edge4_Node000003_Node000005"><a xlink:title=" ">
<path fill="none" stroke="#63b8ff" d="M144.01,-22.39C135.96,-21.19 127.77,-19.97 119.82,-18.79"/>
<polygon fill="#63b8ff" stroke="#63b8ff" points="143.34,-25.83 153.74,-23.83 144.37,-18.9 143.34,-25.83"/>
</a>
</g>
</g>
</g>
</svg>
