<?xml version="1.0" encoding="UTF-8" standalone="no"?>
<!DOCTYPE svg PUBLIC "-//W3C//DTD SVG 1.1//EN"
 "http://www.w3.org/Graphics/SVG/1.1/DTD/svg11.dtd">
<!-- Generated by graphviz version 12.1.0 (20240811.2233)
 -->
<!-- Title: tiebreaker_cli.cmd_match Pages: 1 -->
<svg width="514pt" height="90pt"
 viewBox="0.00 0.00 513.75 90.00" xmlns="http://www.w3.org/2000/svg" xmlns:xlink="http://www.w3.org/1999/xlink">
<g id="graph0" class="graph" transform="scale(1 1) rotate(0) translate(4 86)">
<title>tiebreaker_cli.cmd_match</title>
<!-- Node1 -->
<g id="Node000001" class="node">
<title>Node1</title>
<g id="a_Node000001"><a xlink:title=" ">
<polygon fill="#999999" stroke="#666666" points="95.5,-57 0,-57 0,-25 95.5,-25 95.5,-57"/>
<text text-anchor="start" x="8" y="-43.5" font-family="Helvetica,sans-Serif" font-size="10.00">tiebreaker_cli.cmd</text>
<text text-anchor="middle" x="47.75" y="-31.5" font-family="Helvetica,sans-Serif" font-size="10.00">_match</text>
</a>
</g>
</g>
<!-- Node2 -->
<g id="Node000002" class="node">
<title>Node2</title>
<g id="a_Node000002"><a xlink:href="namespacetiebreaker__cli.html#a0e61573514b7b3874c720ee48d067434" target="_top" xlink:title=" ">
<polygon fill="white" stroke="#666666" points="233.38,-82 137.88,-82 137.88,-50 233.38,-50 233.38,-82"/>
<text text-anchor="start" x="145.88" y="-68.5" font-family="Helvetica,sans-Serif" font-size="10.00">tiebreaker_cli.date</text>
<text text-anchor="middle" x="185.62" y="-56.5" font-family="Helvetica,sans-Serif" font-size="10.00">_parse_or_none</text>
</a>
</g>
</g>
<!-- Node1&#45;&gt;Node2 -->
<g id="edge1_Node000001_Node000002" class="edge">
<title>Node1&#45;&gt;Node2</title>
<g id="a_edge1_Node000001_Node000002"><a xlink:title=" ">
<path fill="none" stroke="#63b8ff" d="M95.89,-49.67C105.69,-51.48 116.13,-53.4 126.28,-55.27"/>
<polygon fill="#63b8ff" stroke="#63b8ff" points="125.61,-58.7 136.08,-57.07 126.88,-51.82 125.61,-58.7"/>
</a>
</g>
</g>
<!-- Node3 -->
<g id="Node000003" class="node">
<title>Node3</title>
<g id="a_Node000003"><a xlink:href="namespacetiebreaker__cli.html#a5772e6f252862a69fe791cace9fcb6e0" target="_top" xlink:title=" ">
<polygon fill="white" stroke="#666666" points="239.75,-32 131.5,-32 131.5,0 239.75,0 239.75,-32"/>
<text text-anchor="start" x="139.5" y="-18.5" font-family="Helvetica,sans-Serif" font-size="10.00">tiebreaker_cli.resolve</text>
<text text-anchor="middle" x="185.62" y="-6.5" font-family="Helvetica,sans-Serif" font-size="10.00">_player_id</text>
</a>
</g>
</g>
<!-- Node1&#45;&gt;Node3 -->
<g id="edge2_Node000001_Node000003" class="edge">
<title>Node1&#45;&gt;Node3</title>
<g id="a_edge2_Node000001_Node000003"><a xlink:title=" ">
<path fill="none" stroke="#63b8ff" d="M95.89,-32.33C103.6,-30.91 111.71,-29.42 119.76,-27.94"/>
<polygon fill="#63b8ff" stroke="#63b8ff" points="120.36,-31.38 129.56,-26.13 119.09,-24.5 120.36,-31.38"/>
</a>
</g>
</g>
<!-- Node4 -->
<g id="Node000004" class="node">
<title>Node4</title>
<g id="a_Node000004"><a xlink:href="namespacetiebreaker__cli.html#a27f9cace7298ef8ce8defef27dc1a0a4" target="_top" xlink:title=" ">
<polygon fill="white" stroke="#666666" points="371.25,-32 275.75,-32 275.75,0 371.25,0 371.25,-32"/>
<text text-anchor="start" x="283.75" y="-18.5" font-family="Helvetica,sans-Serif" font-size="10.00">tiebreaker_cli.best</text>
<text text-anchor="middle" x="323.5" y="-6.5" font-family="Helvetica,sans-Serif" font-size="10.00">_name_match</text>
</a>
</g>
</g>
<!-- Node3&#45;&gt;Node4 -->
<g id="edge3_Node000003_Node000004" class="edge">
<title>Node3&#45;&gt;Node4</title>
<g id="a_edge3_Node000003_Node000004"><a xlink:title=" ">
<path fill="none" stroke="#63b8ff" d="M239.94,-16C247.92,-16 256.19,-16 264.27,-16"/>
<polygon fill="#63b8ff" stroke="#63b8ff" points="264,-19.5 274,-16 264,-12.5 264,-19.5"/>
</a>
</g>
</g>
<!-- Node5 -->
<g id="Node000005" class="node">
<title>Node5</title>
<g id="a_Node000005"><a xlink:href="namespacetiebreaker__cli.html#a5c42fcc9f2cef62c42bb4beface1481c" target="_top" xlink:title=" ">
<polygon fill="white" stroke="#666666" points="505.75,-26 407.25,-26 407.25,-6 505.75,-6 505.75,-26"/>
<text text-anchor="middle" x="456.5" y="-12.5" font-family="Helvetica,sans-Serif" font-size="10.00">tiebreaker_cli.norm</text>
</a>
</g>
</g>
<!-- Node4&#45;&gt;Node5 -->
<g id="edge4_Node000004_Node000005" class="edge">
<title>Node4&#45;&gt;Node5</title>
<g id="a_edge4_Node000004_Node000005"><a xlink:title=" ">
<path fill="none" stroke="#63b8ff" d="M371.42,-16C379.31,-16 387.58,-16 395.74,-16"/>
<polygon fill="#63b8ff" stroke="#63b8ff" points="395.62,-19.5 405.62,-16 395.62,-12.5 395.62,-19.5"/>
</a>
</g>
</g>
</g>
</svg>
